<svg width="63" height="53" viewBox="0 0 63 53" fill="none" xmlns="http://www.w3.org/2000/svg">
<style>
.translate-in {
  animation: .9s forwards moveIn;
}
.scale-in {
  animation: .9s forwards scaleIn;
  transform-origin: center;
}
@keyframes moveIn {
  0% { transform: translate(var(--x, 0%), var(--y, 0%)); }
  100% { transform: translate(0%, 0%); }
}
@keyframes scaleIn {
  0% { transform: scale(0); }
  100% { transform: scale(1); }
}

</style>
<g clip-path="url(#clip0_219_337)">
    <path id="l1" class="translate-in" style="--x: 37%; --y: 35%; animation-delay: 0s;"  d="M7.39981 13.5C10.7687 13.5 13.4998 10.7689 13.4998 7.4C13.4998 4.03106 10.7687 1.3 7.39981 1.3C4.03087 1.3 1.2998 4.03106 1.2998 7.4C1.2998 10.7689 4.03087 13.5 7.39981 13.5Z" stroke="#13A590" stroke-width="2.5021" stroke-miterlimit="10"/>
    <path id="l2" class="translate-in" style="--x: 38%; --y: 0%; animation-delay: 0.1s;"   d="M7.39981 32.2C10.7687 32.2 13.4998 29.4689 13.4998 26.1C13.4998 22.7311 10.7687 20 7.39981 20C4.03087 20 1.2998 22.7311 1.2998 26.1C1.2998 29.4689 4.03087 32.2 7.39981 32.2Z" stroke="#13A590" stroke-width="2.5021" stroke-miterlimit="10"/>
    <path id="l3" class="translate-in" style="--x: 38%; --y: -35%; animation-delay: 0.2s;" d="M7.39981 50.9C10.7687 50.9 13.4998 48.1689 13.4998 44.8C13.4998 41.4311 10.7687 38.7 7.39981 38.7C4.03087 38.7 1.2998 41.4311 1.2998 44.8C1.2998 48.1689 4.03087 50.9 7.39981 50.9Z" stroke="#13A590" stroke-width="2.5021" stroke-miterlimit="10"/>
    <path id="l4" class="translate-in" style="--x: 0%; --y: 35%; animation-delay: 0.3s;"  d="M31.1996 13.5C34.5685 13.5 37.2996 10.7689 37.2996 7.4C37.2996 4.03106 34.5685 1.3 31.1996 1.3C27.8307 1.3 25.0996 4.03106 25.0996 7.4C25.0996 10.7689 27.8307 13.5 31.1996 13.5Z" stroke="#13A590" stroke-width="2.5021" stroke-miterlimit="10"/>
    <path id="l5" d="M31.1996 32.2C34.5685 32.2 37.2996 29.4689 37.2996 26.1C37.2996 22.7311 34.5685 20 31.1996 20C27.8307 20 25.0996 22.7311 25.0996 26.1C25.0996 29.4689 27.8307 32.2 31.1996 32.2Z" stroke="#13A590" stroke-width="2.5021" stroke-miterlimit="10"/>
    <path id="l6" class="translate-in" style="--x: 0%; --y: -36%; animation-delay: 0.4s;"  d="M31.1996 50.9C34.5685 50.9 37.2996 48.1689 37.2996 44.8C37.2996 41.4311 34.5685 38.7 31.1996 38.7C27.8307 38.7 25.0996 41.4311 25.0996 44.8C25.0996 48.1689 27.8307 50.9 31.1996 50.9Z" stroke="#13A590" stroke-width="2.5021" stroke-miterlimit="10"/>
    <path id="l7" class="translate-in" style="--x: -38%; --y: 35%; animation-delay: 0.5s;" d="M55.1 13.5C58.4689 13.5 61.2 10.7689 61.2 7.4C61.2 4.03106 58.4689 1.3 55.1 1.3C51.7311 1.3 49 4.03106 49 7.4C49 10.7689 51.7311 13.5 55.1 13.5Z" stroke="#13A590" stroke-width="2.5021" stroke-miterlimit="10"/>
    <path id="l8" class="translate-in" style="--x: -37%; --y: 0%; animation-delay: 0.6s;"  d="M55.1 32.2C58.4689 32.2 61.2 29.4689 61.2 26.1C61.2 22.7311 58.4689 20 55.1 20C51.7311 20 49 22.7311 49 26.1C49 29.4689 51.7311 32.2 55.1 32.2Z" stroke="#13A590" stroke-width="2.5021" stroke-miterlimit="10"/>
    <path id="l9" class="translate-in" style="--x: -38%; --y: -34%; animation-delay: 0.7s;" d="M55.1 50.9C58.4689 50.9 61.2 48.1689 61.2 44.8C61.2 41.4311 58.4689 38.7 55.1 38.7C51.7311 38.7 49 41.4311 49 44.8C49 48.1689 51.7311 50.9 55.1 50.9Z" stroke="#13A590" stroke-width="2.5021" stroke-miterlimit="10"/>
    <path id="l10" class="scale-in" d="M7.3999 14.8V18.7" stroke="#13A590" stroke-width="2.5021" stroke-miterlimit="10"/>
    <path id="l11" class="scale-in" d="M39 7.4H47.1" stroke="#13A590" stroke-width="2.5021" stroke-miterlimit="10"/>
    <path id="l12" class="scale-in" d="M37.1997 40.2L48.1997 30.4" stroke="#13A590" stroke-width="2.5021" stroke-miterlimit="10"/>
</g>
<defs>
<clipPath id="clip0_219_337">
<rect width="62.4" height="52.2" fill="white"/>
</clipPath>
</defs>
</svg>
