<svg width="33" height="33" viewBox="0 0 33 33" fill="none" xmlns="http://www.w3.org/2000/svg">
<path d="M16.9999 28C20.3332 28 23.1499 26.8333 25.4499 24.5C27.7499 22.1667 28.9332 19.3333 28.9999 16V4H16.9999C13.6666 4.06667 10.8332 5.25 8.4999 7.55C6.16657 9.85 4.9999 12.6667 4.9999 16C4.9999 19.3333 6.16657 22.1667 8.4999 24.5C10.8332 26.8333 13.6666 28 16.9999 28ZM14.0999 25.1L23.8499 16.45L23.2999 14.85L16.0999 14.15L20.7499 7.65L19.9499 6.8L10.1999 15.5L10.7499 17.1L17.9499 17.8L13.2499 24.25L14.0999 25.1ZM16.9999 32C15.1332 32 13.3752 31.7087 11.7259 31.126C10.0766 30.5433 8.5679 29.718 7.1999 28.65L2.9999 32.85L0.149902 30L4.3499 25.8C3.28324 24.4333 2.45857 22.9253 1.8759 21.276C1.29324 19.6267 1.00124 17.868 0.999902 16C0.999902 11.5333 2.5499 7.75 5.6499 4.65C8.7499 1.55 12.5332 0 16.9999 0H32.9999V16C32.9999 20.4667 31.4499 24.25 28.3499 27.35C25.2499 30.45 21.4666 32 16.9999 32Z" fill="white"/>
</svg>
