<svg width="38" height="40" viewBox="0 0 38 40" fill="none" xmlns="http://www.w3.org/2000/svg">
<path fill-rule="evenodd" clip-rule="evenodd" d="M30 6L38 14V40H6V6H30ZM28.3432 10H10V36H34V15.6568L28.3432 10ZM24 0L28 4.00003H4.00003V34H0V0H24ZM22.9034 15.6727C24.4163 17.6397 24.9265 20.0597 24.4418 21.8264C24.3813 22.1172 26.5135 24.3843 30.8385 28.6275C32.2527 30.0417 32.2527 31.4559 30.8385 32.8702C29.5075 34.2012 28.1765 34.2795 26.8454 33.1051L19.8264 26.4418C18.0595 26.9267 15.6397 26.4162 13.6727 24.9034C12.2299 23.0063 11.7323 20.5268 12.1343 18.7496L15.2111 21.8265L18.288 20.2881L19.8264 17.2111L16.7496 14.1342C18.5267 13.7323 21.0064 14.2298 22.9033 15.6727" fill="white"/>
</svg>
