<svg width="44" height="44" viewBox="0 0 44 44" fill="none" xmlns="http://www.w3.org/2000/svg">
<path d="M20 34H24V40H20V34ZM30 40V44H14V40H30ZM38 34H6C4.40919 33.9984 2.88399 33.3658 1.75911 32.2409C0.63424 31.116 0.00158843 29.5908 0 28V6C0.00158843 4.40919 0.63424 2.88399 1.75911 1.75911C2.88399 0.63424 4.40919 0.00158843 6 0H38C39.5908 0.00158843 41.116 0.63424 42.2409 1.75911C43.3658 2.88399 43.9984 4.40919 44 6V28C43.9984 29.5908 43.3658 31.116 42.2409 32.2409C41.116 33.3658 39.5908 33.9984 38 34ZM6 4C5.46957 4 4.96086 4.21071 4.58579 4.58579C4.21071 4.96086 4 5.46957 4 6V28C4 28.5304 4.21071 29.0391 4.58579 29.4142C4.96086 29.7893 5.46957 30 6 30H38C38.5304 30 39.0391 29.7893 39.4142 29.4142C39.7893 29.0391 40 28.5304 40 28V6C40 5.46957 39.7893 4.96086 39.4142 4.58579C39.0391 4.21071 38.5304 4 38 4H6Z" fill="white"/>
</svg>
