<svg width="48" height="48" viewBox="0 0 48 48" fill="none" xmlns="http://www.w3.org/2000/svg">
<path d="M37.5 7.5H37.245V10.5H37.5C37.8978 10.5 38.2794 10.658 38.5607 10.9393C38.842 11.2206 39 11.6022 39 12V42C39 42.3978 38.842 42.7794 38.5607 43.0607C38.2794 43.342 37.8978 43.5 37.5 43.5H10.5C10.1022 43.5 9.72064 43.342 9.43934 43.0607C9.15804 42.7794 9 42.3978 9 42V12C9 11.6022 9.15804 11.2206 9.43934 10.9393C9.72064 10.658 10.1022 10.5 10.5 10.5H10.755V7.5H10.5C9.30653 7.5 8.16193 7.97411 7.31802 8.81802C6.47411 9.66193 6 10.8065 6 12V42C6 43.1935 6.47411 44.3381 7.31802 45.182C8.16193 46.0259 9.30653 46.5 10.5 46.5H37.5C38.6935 46.5 39.8381 46.0259 40.682 45.182C41.5259 44.3381 42 43.1935 42 42V12C42 10.8065 41.5259 9.66193 40.682 8.81802C39.8381 7.97411 38.6935 7.5 37.5 7.5Z" fill="white"/>
<path d="M34.5 4.5H30V0H18V4.5H13.5V13.5H34.5V4.5ZM31.5 10.5H16.5V7.5H21V3H27V7.5H31.5V10.5Z" fill="white"/>
<path d="M15 19.5H33V22.5H15V19.5ZM15 27H33V30H15V27ZM15 34.5H33V37.5H15V34.5Z" fill="white"/>
</svg>
