<svg width="120" height="120" viewBox="0 0 120 120" fill="none" xmlns="http://www.w3.org/2000/svg">
<path d="M120 77.168V90H112.5V80.332L106.113 73.8867L106.289 73.7109C104.727 74.5703 102.988 75 101.074 75C99.3555 75 97.7734 74.6484 96.3281 73.9453L90 80.332V90H82.5V77.168L90.9961 68.7305L90.8203 68.3203L76.1133 35.3906L52.207 60.0586C52.2852 60.6836 52.3438 61.2891 52.3828 61.875C52.4219 62.4609 52.4609 63.0859 52.5 63.75V112.5H60V120H0V112.5H7.5V63.75C7.5 60.7812 8.04688 57.9883 9.14062 55.3711C10.2344 52.7539 11.7188 50.4297 13.5938 48.3984C15.4688 46.3672 17.6953 44.7266 20.2734 43.4766C22.8516 42.2266 25.625 41.5039 28.5938 41.3086L64.2188 4.57031C65.625 3.08594 67.2656 1.95312 69.1406 1.17188C71.0156 0.390625 72.9688 0 75 0C76.3672 0 77.7344 0.195312 79.1016 0.585938C80.4688 0.976562 81.7773 1.5625 83.0273 2.34375C84.2773 3.125 85.3906 4.02344 86.3672 5.03906C87.3437 6.05469 88.125 7.22656 88.7109 8.55469L111.211 58.8281C111.562 59.6094 111.816 60.4102 111.973 61.2305C112.129 62.0508 112.207 62.8711 112.207 63.6914C112.207 64.6289 112.109 65.5469 111.914 66.4453C111.719 67.3438 111.387 68.2227 110.918 69.082L111.387 68.6133L120 77.168ZM45 112.5V63.75C45 61.6797 44.6094 59.7461 43.8281 57.9492C43.0469 56.1523 41.9727 54.5508 40.6055 53.1445C39.2383 51.7383 37.6562 50.6641 35.8594 49.9219C34.0625 49.1797 32.1094 48.7891 30 48.75C27.9297 48.75 25.9961 49.1406 24.1992 49.9219C22.4023 50.7031 20.8008 51.7773 19.3945 53.1445C17.9883 54.5117 16.9141 56.0938 16.1719 57.8906C15.4297 59.6875 15.0391 61.6406 15 63.75V112.5H45ZM37.7344 42.5977C40.1562 43.4961 42.3633 44.7656 44.3555 46.4062C46.3477 48.0469 48.0078 49.9805 49.3359 52.207L80.3906 20.2148C81.7969 18.7305 82.5 16.9922 82.5 15C82.5 13.9453 82.3047 12.9688 81.9141 12.0703C81.5234 11.1719 80.9961 10.3906 80.332 9.72656C79.668 9.0625 78.8672 8.51562 77.9297 8.08594C76.9922 7.65625 76.0156 7.46094 75 7.5C72.8516 7.5 71.0547 8.26172 69.6094 9.78516L37.7344 42.5977ZM87.2461 23.6133C86.543 24.7461 85.6836 25.7812 84.668 26.7188C83.6523 27.6562 82.6758 28.6133 81.7383 29.5898L93.2812 55.4297L100.137 52.5L87.2461 23.6133ZM101.074 67.5C102.207 67.5 103.105 67.1289 103.77 66.3867C104.434 65.6445 104.766 64.7461 104.766 63.6914C104.766 62.9102 104.59 62.168 104.238 61.4648C103.887 60.7617 103.535 60.0586 103.184 59.3555L96.3281 62.2852C96.5625 62.8711 96.7969 63.4766 97.0312 64.1016C97.2656 64.7266 97.5586 65.293 97.9102 65.8008C98.2617 66.3086 98.6719 66.7188 99.1406 67.0312C99.6094 67.3438 100.254 67.5 101.074 67.5ZM30 60C31.0547 60 32.0312 60.1953 32.9297 60.5859C33.8281 60.9766 34.6094 61.5039 35.2734 62.168C35.9375 62.832 36.4844 63.6328 36.9141 64.5703C37.3438 65.5078 37.5391 66.4844 37.5 67.5C37.5 68.5547 37.3047 69.5312 36.9141 70.4297C36.5234 71.3281 35.9961 72.1094 35.332 72.7734C34.668 73.4375 33.8672 73.9844 32.9297 74.4141C31.9922 74.8438 31.0156 75.0391 30 75C28.9453 75 27.9688 74.8047 27.0703 74.4141C26.1719 74.0234 25.3906 73.4961 24.7266 72.832C24.0625 72.168 23.5156 71.3672 23.0859 70.4297C22.6562 69.4922 22.4609 68.5156 22.5 67.5C22.5 66.4453 22.6953 65.4688 23.0859 64.5703C23.4766 63.6719 24.0039 62.8906 24.668 62.2266C25.332 61.5625 26.1328 61.0156 27.0703 60.5859C28.0078 60.1562 28.9844 59.9609 30 60Z" fill="#2F2F2F"/>
</svg>
