<svg width="90" height="100" viewBox="0 0 90 100" fill="none" xmlns="http://www.w3.org/2000/svg">
<path d="M41.9501 1.43494C37.1901 5.56475 33.5925 10.8671 31.5138 16.8162C29.4352 22.7653 28.9478 29.1544 30.1001 35.3499C22.4901 30.9699 14.1001 29.6499 4.46007 30.4499C3.83155 30.5041 3.21987 30.6815 2.65999 30.9722C2.10012 31.2629 1.60304 31.6611 1.19718 32.1441C0.791314 32.627 0.484631 33.1853 0.294665 33.7868C0.104699 34.3884 0.0351757 35.0215 0.0900718 35.6499C0.875072 44.2799 4.85007 52.8399 10.3901 59.5299C8.302 59.5132 6.21529 59.6419 4.14507 59.9149C2.95431 60.0737 1.86953 60.6824 1.11354 61.616C0.357556 62.5496 -0.0122535 63.7372 0.0800725 64.9349C0.81441 74.4745 5.12218 83.3855 12.1422 89.8864C19.1623 96.3873 28.3773 99.9992 37.9451 99.9999H52.0501C61.6187 100 70.835 96.3892 77.8561 89.8881C84.8772 83.3871 89.1857 74.4754 89.9201 64.9349C90.0123 63.7364 89.6418 62.5481 88.8848 61.6144C88.1277 60.6807 87.0417 60.0725 85.8501 59.9149C83.8047 59.6453 81.7431 59.5167 79.6801 59.5299C85.2201 52.8349 89.1951 44.2799 89.9801 35.6499C90.035 35.0211 89.9652 34.3876 89.775 33.7857C89.5847 33.1839 89.2776 32.6255 88.8712 32.1424C88.4648 31.6594 87.9671 31.2613 87.4067 30.9709C86.8463 30.6805 86.234 30.5034 85.6051 30.4499C75.9651 29.6499 67.5301 30.9699 59.8951 35.3499C61.0479 29.1548 60.5613 22.766 58.4836 16.8169C56.4058 10.8679 52.8091 5.56529 48.0501 1.43494C47.204 0.699764 46.1209 0.294922 45.0001 0.294922C43.8792 0.294922 42.7961 0.699764 41.9501 1.43494ZM45.0001 48.6349C39.8651 43.2895 36.9973 36.1647 36.9973 28.7524C36.9973 21.3402 39.8651 14.2154 45.0001 8.86994C50.1336 14.2151 53.0004 21.3389 53.0004 28.7499C53.0004 36.161 50.1336 43.2848 45.0001 48.6299M45.0001 76.6649C39.5538 69.7356 32.1926 64.558 23.8301 61.7749C23.6681 61.6219 23.496 61.48 23.3151 61.3499C15.9651 56.3499 9.71507 47.1299 7.95007 37.7499C17.2951 37.4399 24.6301 39.6849 31.3251 45.3549C36.4501 49.6999 38.7251 54.9949 40.4101 58.9299C40.8501 59.9499 41.2451 60.8799 41.6451 61.6699C41.9568 62.292 42.4355 62.815 43.0276 63.1806C43.6197 63.5461 44.3018 63.7397 44.9976 63.7397C45.6934 63.7397 46.3755 63.5461 46.9675 63.1806C47.5596 62.815 48.0383 62.292 48.3501 61.6699C48.7434 60.8699 49.1551 59.9566 49.5851 58.9299C51.2751 54.9949 53.5451 49.6949 58.6701 45.3549C65.3651 39.6899 72.7551 37.4399 82.1201 37.7499C80.3501 47.1299 74.1051 56.3499 66.7551 61.3499C66.5873 61.4683 66.427 61.5969 66.2751 61.7349C57.8687 64.5121 50.4682 69.7022 45.0001 76.6649ZM48.2151 85.1999C55.1801 73.5499 68.2251 66.2999 82.1101 67.0849C80.9126 74.191 77.236 80.643 71.733 85.2957C66.2299 89.9484 59.2564 92.5008 52.0501 92.4999H37.9501C22.9501 92.4999 10.3301 81.6199 7.89507 67.0899C21.7751 66.2999 34.8201 73.5449 41.7851 85.1999C42.118 85.7561 42.5894 86.2164 43.1533 86.5361C43.7172 86.8557 44.3544 87.0237 45.0026 87.0237C45.6508 87.0237 46.2879 86.8557 46.8518 86.5361C47.4157 86.2164 47.8871 85.7561 48.2201 85.1999" fill="#2F2F2F"/>
</svg>
