<svg width="106" height="91" viewBox="0 0 106 91" fill="none" xmlns="http://www.w3.org/2000/svg">
<path fill-rule="evenodd" clip-rule="evenodd" d="M15.5 0H68V15H92.375L105.5 32.4975V78.75H97.5275C96.6988 81.9732 94.8216 84.8293 92.1916 86.8687C89.5616 88.908 86.3281 90.0148 83 90.0148C79.6719 90.0148 76.4384 88.908 73.8084 86.8687C71.1784 84.8293 69.3012 81.9732 68.4725 78.75H33.7775C32.8648 82.285 30.6941 85.3657 27.6725 87.4148C24.6508 89.4638 20.9855 90.3405 17.3637 89.8804C13.7419 89.4204 10.4123 87.6553 7.99879 84.9159C5.58533 82.1765 4.25381 78.6509 4.25381 75C4.25381 71.3491 5.58533 67.8235 7.99879 65.0841C10.4123 62.3447 13.7419 60.5796 17.3637 60.1196C20.9855 59.6595 24.6508 60.5362 27.6725 62.5852C30.6941 64.6343 32.8648 67.715 33.7775 71.25H68.4725C69.3012 68.0268 71.1784 65.1707 73.8084 63.1313C76.4384 61.092 79.6719 59.9852 83 59.9852C86.3281 59.9852 89.5616 61.092 92.1916 63.1313C94.8216 65.1707 96.6988 68.0268 97.5275 71.25H98V37.5H60.5V7.5H15.5V0ZM41.75 30H8V22.5H41.75V30ZM34.25 52.5H0.5V45H34.25V52.5ZM19.25 67.5C17.2609 67.5 15.3532 68.2902 13.9467 69.6967C12.5402 71.1032 11.75 73.0109 11.75 75C11.75 76.9891 12.5402 78.8968 13.9467 80.3033C15.3532 81.7098 17.2609 82.5 19.25 82.5C21.2391 82.5 23.1468 81.7098 24.5533 80.3033C25.9598 78.8968 26.75 76.9891 26.75 75C26.75 73.0109 25.9598 71.1032 24.5533 69.6967C23.1468 68.2902 21.2391 67.5 19.25 67.5ZM83 67.5C81.0109 67.5 79.1032 68.2902 77.6967 69.6967C76.2902 71.1032 75.5 73.0109 75.5 75C75.5 76.9891 76.2902 78.8968 77.6967 80.3033C79.1032 81.7098 81.0109 82.5 83 82.5C84.9891 82.5 86.8968 81.7098 88.3033 80.3033C89.7098 78.8968 90.5 76.9891 90.5 75C90.5 73.0109 89.7098 71.1032 88.3033 69.6967C86.8968 68.2902 84.9891 67.5 83 67.5Z" fill="#2F2F2F"/>
</svg>
