<svg width="163" height="165" viewBox="0 0 163 165" fill="none" xmlns="http://www.w3.org/2000/svg">
<rect y="0.461914" width="162.222" height="164.076" rx="16" fill="#2CA198"/>
<g clip-path="url(#clip0_219_251)">
<path fill-rule="evenodd" clip-rule="evenodd" d="M62.4293 120.146L47.1725 104.89C48.8502 102.083 50.5225 99.1778 52.1785 96.2893C57.6948 86.7009 63.0809 77.3405 68.1303 72.4702C81.8343 58.7662 100.604 66.715 100.604 66.715C100.604 66.715 108.547 85.4847 94.8487 99.1887C90.0165 104.195 80.8027 109.505 71.2848 114.978C68.3203 116.688 65.3287 118.409 62.4293 120.146ZM74.0484 84.6811C74.0484 82.4031 74.9534 80.2183 76.5642 78.6075C78.175 76.9966 80.3598 76.0917 82.6378 76.0917C84.9159 76.0917 87.1007 76.9966 88.7115 78.6075C90.3223 80.2183 91.2273 82.4031 91.2273 84.6811C91.1709 86.9211 90.2416 89.0503 88.6374 90.6147C87.0332 92.179 84.8812 93.0546 82.6406 93.0546C80.3999 93.0546 78.2479 92.179 76.6437 90.6147C75.0396 89.0503 74.1047 86.9211 74.0484 84.6811ZM51.8418 83.4215C44.1428 81.3746 36.9162 85.1643 30.504 91.0445C30.2083 91.323 29.9818 91.6669 29.8426 92.0485C29.7034 92.4302 29.6554 92.8391 29.7023 93.2426C29.7493 93.6461 29.8899 94.0331 30.113 94.3726C30.3361 94.7121 30.6355 94.9948 30.9872 95.198L41.3304 101.431L41.3412 101.409C42.8343 98.9118 44.5012 96.0179 46.1952 93.0859C48.1226 89.736 50.0827 86.3371 51.8418 83.4215ZM65.8879 125.989L72.1209 136.332C72.3247 136.683 72.6077 136.982 72.9474 137.205C73.2872 137.427 73.6742 137.567 74.0777 137.614C74.4812 137.66 74.89 137.612 75.2714 137.472C75.6528 137.332 75.9963 137.105 76.2745 136.81C82.1546 130.403 85.9498 123.171 83.8975 115.472C81.0633 117.177 78.0879 118.892 75.1397 120.592L74.6891 120.852C71.7137 122.568 68.7655 124.262 65.915 125.972L65.8879 125.989ZM41.1186 115.151C43.313 115.112 45.4678 115.739 47.2987 116.95C49.1297 118.16 50.5509 119.896 51.3752 121.931C52.1994 123.965 52.3879 126.201 51.9158 128.344C51.4438 130.488 50.3333 132.438 48.7308 133.937C47.5254 135.088 45.6414 135.99 43.8985 136.685C41.9432 137.437 39.9496 138.086 37.9261 138.628C35.9335 139.171 34.0332 139.606 32.5943 139.893C31.9894 140.018 31.3811 140.124 30.77 140.214L30.0479 140.284C29.6852 140.317 29.3196 140.276 28.9729 140.165C28.4633 140.017 28.0084 139.722 27.6644 139.318C27.3689 138.976 27.1636 138.565 27.0671 138.123C26.9985 137.81 26.9765 137.488 27.002 137.168C27.0183 136.951 27.0508 136.701 27.0834 136.473C27.154 135.995 27.2626 135.371 27.4092 134.659C27.697 133.226 28.1422 131.337 28.6851 129.355C29.2281 127.379 29.8905 125.261 30.6343 123.41C31.3293 121.667 32.2306 119.788 33.3816 118.588C34.3754 117.526 35.5723 116.675 36.9014 116.085C38.2305 115.494 39.6646 115.177 41.1186 115.151Z" fill="white"/>
</g>
<path d="M129.92 26.7959C131.094 24.6898 131.681 23.6367 132.559 23.6367C133.436 23.6367 134.023 24.6898 135.198 26.7959L135.502 27.3409C135.836 27.9398 136.002 28.2392 136.262 28.4366C136.521 28.6341 136.846 28.7073 137.495 28.8538L138.084 28.9873C140.365 29.5036 141.504 29.7613 141.776 30.6336C142.046 31.505 141.27 32.4143 139.715 34.2321L139.313 34.7021C138.871 35.2185 138.65 35.4771 138.551 35.796C138.451 36.1158 138.485 36.4606 138.552 37.1494L138.613 37.7769C138.847 40.2029 138.965 41.4153 138.255 41.9539C137.545 42.4925 136.477 42.0012 134.343 41.0186L133.79 40.7646C133.183 40.4847 132.88 40.3456 132.559 40.3456C132.237 40.3456 131.934 40.4847 131.328 40.7646L130.775 41.0186C128.64 42.0012 127.572 42.4925 126.863 41.9549C126.152 41.4153 126.27 40.2029 126.504 37.7769L126.566 37.1503C126.632 36.4606 126.666 36.1158 126.566 35.7969C126.467 35.4771 126.246 35.2185 125.805 34.7031L125.402 34.2321C123.848 32.4153 123.071 31.5059 123.342 30.6336C123.612 29.7613 124.753 29.5027 127.034 28.9873L127.623 28.8538C128.271 28.7073 128.595 28.6341 128.855 28.4366C129.116 28.2392 129.282 27.9398 129.615 27.3409L129.92 26.7959Z" fill="#FFF0F0"/>
<defs>
<clipPath id="clip0_219_251">
<rect width="76.0127" height="76.0127" fill="white" transform="translate(26.8826 64.4238)"/>
</clipPath>
</defs>
</svg>
